<mxfile host="Electron" agent="Mozilla/5.0 (Macintosh; Intel Mac OS X 10_15_7) AppleWebKit/537.36 (KHTML, like Gecko) draw.io/24.7.17 Chrome/128.0.6613.36 Electron/32.0.1 Safari/537.36" version="24.7.17">
  <diagram name="Page-1" id="DYFdJtEx81X-teSN2fxA">
    <mxGraphModel dx="1211" dy="831" grid="0" gridSize="10" guides="1" tooltips="1" connect="1" arrows="1" fold="1" page="0" pageScale="1" pageWidth="850" pageHeight="1100" background="#ffffff" math="0" shadow="0">
      <root>
        <mxCell id="0" />
        <mxCell id="1" parent="0" />
        <mxCell id="uTxP797zPTyYRlyg6JWm-3" style="edgeStyle=orthogonalEdgeStyle;rounded=1;orthogonalLoop=1;jettySize=auto;html=1;curved=0;strokeColor=#666666;" parent="1" source="uTxP797zPTyYRlyg6JWm-1" target="uTxP797zPTyYRlyg6JWm-4" edge="1">
          <mxGeometry relative="1" as="geometry">
            <mxPoint x="120" y="100" as="targetPoint" />
          </mxGeometry>
        </mxCell>
        <mxCell id="uTxP797zPTyYRlyg6JWm-1" value="Start" style="ellipse;whiteSpace=wrap;html=1;fillColor=#ffffff;fontColor=#000000;strokeColor=#666666;" parent="1" vertex="1">
          <mxGeometry x="153" y="80" width="60" height="40" as="geometry" />
        </mxCell>
        <mxCell id="uTxP797zPTyYRlyg6JWm-8" style="edgeStyle=orthogonalEdgeStyle;rounded=1;orthogonalLoop=1;jettySize=auto;html=1;curved=0;strokeColor=#666666;fontColor=#000000;labelBackgroundColor=none;" parent="1" source="uTxP797zPTyYRlyg6JWm-4" target="uTxP797zPTyYRlyg6JWm-7" edge="1">
          <mxGeometry relative="1" as="geometry" />
        </mxCell>
        <mxCell id="uTxP797zPTyYRlyg6JWm-10" value="No" style="edgeLabel;html=1;align=center;verticalAlign=middle;resizable=0;points=[];labelBackgroundColor=none;fontColor=#000000;" parent="uTxP797zPTyYRlyg6JWm-8" vertex="1" connectable="0">
          <mxGeometry x="-0.1959" y="-1" relative="1" as="geometry">
            <mxPoint x="-8" y="-1" as="offset" />
          </mxGeometry>
        </mxCell>
        <mxCell id="uTxP797zPTyYRlyg6JWm-13" value="Yes" style="edgeStyle=orthogonalEdgeStyle;rounded=1;orthogonalLoop=1;jettySize=auto;html=1;curved=0;strokeColor=#666666;labelBackgroundColor=none;fontColor=#000000;" parent="1" source="uTxP797zPTyYRlyg6JWm-4" target="uTxP797zPTyYRlyg6JWm-14" edge="1">
          <mxGeometry x="-0.0182" y="7" relative="1" as="geometry">
            <mxPoint x="440" y="100" as="targetPoint" />
            <mxPoint as="offset" />
          </mxGeometry>
        </mxCell>
        <mxCell id="uTxP797zPTyYRlyg6JWm-4" value="Instance found?" style="rhombus;whiteSpace=wrap;html=1;fillColor=#ffffff;fontColor=#000000;strokeColor=#666666;" parent="1" vertex="1">
          <mxGeometry x="280" y="41.5" width="117" height="117" as="geometry" />
        </mxCell>
        <mxCell id="uTxP797zPTyYRlyg6JWm-9" style="edgeStyle=orthogonalEdgeStyle;rounded=1;orthogonalLoop=1;jettySize=auto;html=1;curved=0;strokeColor=#666666;" parent="1" source="uTxP797zPTyYRlyg6JWm-7" target="uTxP797zPTyYRlyg6JWm-16" edge="1">
          <mxGeometry relative="1" as="geometry">
            <mxPoint x="432.9999999999998" y="250" as="targetPoint" />
          </mxGeometry>
        </mxCell>
        <mxCell id="uTxP797zPTyYRlyg6JWm-7" value="Remove binding if found" style="whiteSpace=wrap;html=1;fillColor=#ffffff;fontColor=#000000;strokeColor=#666666;rounded=1;" parent="1" vertex="1">
          <mxGeometry x="278.5" y="209" width="120" height="60" as="geometry" />
        </mxCell>
        <mxCell id="uTxP797zPTyYRlyg6JWm-17" value="No" style="edgeStyle=orthogonalEdgeStyle;rounded=1;orthogonalLoop=1;jettySize=auto;html=1;curved=0;strokeColor=#666666;fontColor=#000000;labelBackgroundColor=none;" parent="1" source="uTxP797zPTyYRlyg6JWm-14" target="uTxP797zPTyYRlyg6JWm-16" edge="1">
          <mxGeometry x="-0.0952" y="-10" relative="1" as="geometry">
            <mxPoint as="offset" />
          </mxGeometry>
        </mxCell>
        <mxCell id="uTxP797zPTyYRlyg6JWm-19" value="Yes" style="edgeStyle=orthogonalEdgeStyle;rounded=1;orthogonalLoop=1;jettySize=auto;html=1;curved=0;strokeColor=#666666;labelBackgroundColor=none;fontColor=#000000;entryX=0.502;entryY=0.035;entryDx=0;entryDy=0;entryPerimeter=0;exitX=1;exitY=0.5;exitDx=0;exitDy=0;" parent="1" source="uTxP797zPTyYRlyg6JWm-14" target="uTxP797zPTyYRlyg6JWm-21" edge="1">
          <mxGeometry x="0.1068" y="-12" relative="1" as="geometry">
            <mxPoint x="710" y="180" as="targetPoint" />
            <mxPoint as="offset" />
            <Array as="points">
              <mxPoint x="664" y="100" />
              <mxPoint x="664" y="304" />
              <mxPoint x="233" y="304" />
            </Array>
          </mxGeometry>
        </mxCell>
        <mxCell id="uTxP797zPTyYRlyg6JWm-14" value="Binding found?" style="rhombus;whiteSpace=wrap;html=1;fillColor=#ffffff;fontColor=#000000;strokeColor=#666666;" parent="1" vertex="1">
          <mxGeometry x="459" y="40" width="120" height="120" as="geometry" />
        </mxCell>
        <mxCell id="uTxP797zPTyYRlyg6JWm-16" value="Error returned" style="ellipse;whiteSpace=wrap;html=1;fillColor=#ffffff;fontColor=#000000;strokeColor=#666666;" parent="1" vertex="1">
          <mxGeometry x="485" y="217" width="68" height="44" as="geometry" />
        </mxCell>
        <mxCell id="uTxP797zPTyYRlyg6JWm-23" value="Yes" style="edgeStyle=orthogonalEdgeStyle;rounded=1;orthogonalLoop=1;jettySize=auto;html=1;curved=0;strokeColor=#666666;fontColor=#000000;labelBackgroundColor=none;exitX=1;exitY=0.5;exitDx=0;exitDy=0;" parent="1" source="uTxP797zPTyYRlyg6JWm-21" target="uTxP797zPTyYRlyg6JWm-24" edge="1">
          <mxGeometry x="-0.12" y="10" relative="1" as="geometry">
            <mxPoint x="590" y="339.9999999999999" as="targetPoint" />
            <mxPoint as="offset" />
          </mxGeometry>
        </mxCell>
        <mxCell id="uTxP797zPTyYRlyg6JWm-26" style="edgeStyle=orthogonalEdgeStyle;rounded=1;orthogonalLoop=1;jettySize=auto;html=1;entryX=0;entryY=0.5;entryDx=0;entryDy=0;curved=0;strokeColor=#666666;fontColor=#000000;labelBackgroundColor=none;exitX=0.502;exitY=0.973;exitDx=0;exitDy=0;exitPerimeter=0;" parent="1" source="uTxP797zPTyYRlyg6JWm-21" target="uTxP797zPTyYRlyg6JWm-25" edge="1">
          <mxGeometry relative="1" as="geometry">
            <Array as="points">
              <mxPoint x="233" y="536" />
            </Array>
          </mxGeometry>
        </mxCell>
        <mxCell id="uTxP797zPTyYRlyg6JWm-28" value="No" style="edgeLabel;html=1;align=center;verticalAlign=middle;resizable=0;points=[];labelBackgroundColor=none;fontColor=#000000;" parent="uTxP797zPTyYRlyg6JWm-26" vertex="1" connectable="0">
          <mxGeometry x="-0.7822" y="1" relative="1" as="geometry">
            <mxPoint x="-11" y="1" as="offset" />
          </mxGeometry>
        </mxCell>
        <mxCell id="uTxP797zPTyYRlyg6JWm-21" value="Last operation &lt;br&gt;-&lt;br&gt;deprovisioning or suspension?" style="rhombus;whiteSpace=wrap;html=1;fillColor=#ffffff;fontColor=#000000;strokeColor=#666666;rounded=1;" parent="1" vertex="1">
          <mxGeometry x="153" y="325" width="160" height="160" as="geometry" />
        </mxCell>
        <mxCell id="uTxP797zPTyYRlyg6JWm-30" style="edgeStyle=orthogonalEdgeStyle;rounded=1;orthogonalLoop=1;jettySize=auto;html=1;curved=0;strokeColor=#666666;" parent="1" source="uTxP797zPTyYRlyg6JWm-24" target="uTxP797zPTyYRlyg6JWm-29" edge="1">
          <mxGeometry relative="1" as="geometry" />
        </mxCell>
        <mxCell id="uTxP797zPTyYRlyg6JWm-24" value="Remove binding" style="whiteSpace=wrap;html=1;fillColor=#ffffff;fontColor=#000000;strokeColor=#666666;rounded=1;" parent="1" vertex="1">
          <mxGeometry x="363" y="375" width="120" height="60" as="geometry" />
        </mxCell>
        <mxCell id="uTxP797zPTyYRlyg6JWm-27" style="edgeStyle=orthogonalEdgeStyle;rounded=1;orthogonalLoop=1;jettySize=auto;html=1;curved=0;strokeColor=#666666;" parent="1" source="uTxP797zPTyYRlyg6JWm-25" target="uTxP797zPTyYRlyg6JWm-24" edge="1">
          <mxGeometry relative="1" as="geometry" />
        </mxCell>
        <mxCell id="uTxP797zPTyYRlyg6JWm-25" value="Delete Binding&#39;s ServiceAccount, ClusterRole and ClusteRoleBinding&amp;nbsp;" style="whiteSpace=wrap;html=1;fillColor=#ffffff;fontColor=#000000;strokeColor=#666666;rounded=1;" parent="1" vertex="1">
          <mxGeometry x="353" y="496" width="140" height="80" as="geometry" />
        </mxCell>
        <mxCell id="uTxP797zPTyYRlyg6JWm-29" value="GONE error returned" style="ellipse;whiteSpace=wrap;html=1;fillColor=#ffffff;fontColor=#000000;strokeColor=#666666;" parent="1" vertex="1">
          <mxGeometry x="546" y="372.75" width="85" height="64.5" as="geometry" />
        </mxCell>
      </root>
    </mxGraphModel>
  </diagram>
</mxfile>
